<?xml version="1.0" encoding="utf-8"?>
<!-- Generator: Adobe Illustrator 19.0.0, SVG Export Plug-In . SVG Version: 6.00 Build 0)  -->
<svg version="1.1" id="Capa_1" xmlns="http://www.w3.org/2000/svg" xmlns:xlink="http://www.w3.org/1999/xlink" x="0px" y="0px"
	 viewBox="0 0 595.3 420.9" style="enable-background:new 0 0 595.3 420.9;" xml:space="preserve">
<style type="text/css">
	.st0{fill:#706F6F;}
	.st1{fill:#FFFFFF;}
	.st2{fill:#00A8E1;}
</style>
<g id="XMLID_37_">
	<g id="XMLID_38_">
		<path id="XMLID_34_" class="st1" d="M131.1,222.2c0-3.3-2.7-2.1-2.7-2.1s-2.2-2.8-2.9-6.1c2.4-1.5,5.7-2.5,7.8-2.5
			c4.4,0,8.3,2.7,8.3,8.5v19.9c0,4.1,2.7,2.1,2.7,2.1c2.6,2.1,3.3,5.1,3.3,5.1s-2.6,4.2-8.4,4.2c-5.1,0-8.2-4.4-8.2-8.8V222.2z"/>
		<path id="XMLID_33_" class="st1" d="M173.4,226.9c0-5.3-2.2-7.2-5.5-7.2c-2.4,0-4.4,2.1-4.4,2.1V250c-2.7,0.8-4.6,0.9-6,0.9
			c-1.8,0-4.8-0.4-4.8-0.4v-28.3c0-3.3-2.7-2.1-2.7-2.1s-2.2-2.8-2.9-6.1c2.4-1.5,5.7-2.5,7.8-2.5c2.5,0,4.8,0.9,6.5,3.7
			c1.9-2.2,5.1-3.7,8.4-3.7c7.1,0,14.2,4.2,14.2,15.6v12.7c0,3.9,2.7,2.1,2.7,2.1c2.6,2.1,3.3,5.1,3.3,5.1s-2.8,4.2-8.6,4.2
			c-5.1,0-8.2-4.5-8.2-8.9V226.9z"/>
		<path id="XMLID_32_" class="st1" d="M196.3,220.2h-5.6c0,0-0.2-3.6,1.4-8.2h4.3v-3.4c0-3.1-0.9-7.3-0.9-7.3
			c4.5-2.1,10.2-2.3,10.2-2.3s1.4,4,1.4,8.1v4.9h11.1c0,0,0.2,3.7-1.4,8.2H207v18.1c0,3.2,1.7,4.1,2.9,4.1c1.7,0,5.9-2.2,5.9-2.2
			c2.5,3.5,3,6.2,3,6.2c-0.7,0.8-5.3,4.8-11.1,4.8c-6.5,0-11.2-4.3-11.2-11V220.2z"/>
		<path id="XMLID_55_" class="st1" d="M239.8,251.2c-8,0-18.2-5.2-18.2-19.5c0-14.4,10.2-20.2,17.5-20.2c8.2,0,15.8,6.3,15.8,17.9
			c0,4.2-8.9,6.5-16.9,6.5c-1.7,0-3.3-0.1-5.4-0.5c0.7,7,4.6,8,7.7,8c3.6,0,6.4-3.5,7-4.6c4.7,0.1,7.7,2.8,7.7,2.8
			C253.6,245.5,248.3,251.2,239.8,251.2 M237.7,228.7c3.3,0,6.5-0.3,6.5-1.2c0-3.1-1.4-8.5-4.9-8.5c-3.9,0-6,3.6-6.5,9.3
			C234.1,228.5,235.9,228.7,237.7,228.7"/>
		<path id="XMLID_29_" class="st1" d="M263.2,199.4c0-3.3-2.7-2.1-2.7-2.1s-2.2-2.8-2.9-6.1c2.4-1.5,5.7-2.6,7.8-2.6
			c4.4,0,8.3,2.7,8.3,8.5v42.7c0,3.9,2.7,2.1,2.7,2.1c2.6,2.1,3.3,5.1,3.3,5.1s-2.6,4.2-8.4,4.2c-5.1,0-8.2-4.4-8.2-8.8V199.4z"/>
		<path id="XMLID_51_" class="st1" d="M301.1,251.2c-8,0-18.2-5.2-18.2-19.5c0-14.4,10.2-20.2,17.5-20.2c8.2,0,15.8,6.3,15.8,17.9
			c0,4.2-8.9,6.5-16.9,6.5c-1.7,0-3.3-0.1-5.4-0.5c0.7,7,4.6,8,7.7,8c3.6,0,6.4-3.5,7-4.6c4.7,0.1,7.7,2.8,7.7,2.8
			C314.9,245.5,309.6,251.2,301.1,251.2 M298.9,228.7c3.3,0,6.5-0.3,6.5-1.2c0-3.1-1.4-8.5-4.9-8.5c-3.9,0-6,3.6-6.5,9.3
			C295.4,228.5,297.2,228.7,298.9,228.7"/>
		<path id="XMLID_48_" class="st1" d="M346,248.6c-1.7,1.7-4.8,2.6-7.7,2.6c-6.7,0-16.6-5.5-16.6-20.2c0-13.8,10.1-19.6,17.1-19.6
			c3.2,0,5.9,1.3,7.6,2.6c0,0,0.6-1.4,0.7-1.4c2.5-0.7,3.5-0.8,4.8-0.8c2,0,4.7,0.4,4.7,0.4v48.8c0,3.9,2.7,2.1,2.7,2.1
			c2.6,2.1,3.3,5.1,3.3,5.1s-1.2,1.8-3.7,3.1c-1.3,0.6-2.8,1.1-4.8,1.1c-5.1,0-8.2-4.4-8.2-8.8V248.6z M346,221.2
			c-1.3-0.9-3-2.2-5.9-2.2c-4.3,0-7.3,4.6-7.3,12.6c0,8,3.1,11.5,7.5,11.5c2.8,0,5-1.6,5.7-2.1V221.2z"/>
		<path id="XMLID_24_" class="st1" d="M387.9,212.5c2.8-0.7,4.7-0.8,5.9-0.8c1.8,0,4.8,0.4,4.8,0.4v27.7c0,3.9,2.7,2.1,2.7,2.1
			c2.5,2.1,3.3,5.1,3.3,5.1c-0.3,0.5-2.9,4.2-8.2,4.2c-3.1,0-5.8-1.9-7-3.7c-1.4,1.7-3.8,3.7-8,3.7c-6.4,0-14.2-4.4-14.2-15.3v-13.8
			c0-3.3-2.7-2.1-2.7-2.1s-2.2-2.8-2.9-6.1c2.4-1.5,5.8-2.5,7.9-2.5c4.4,0,8.4,2.7,8.4,8.5v16.8c0,5.2,3.1,6.7,5.9,6.7
			c2.1,0,3.7-1.4,4-1.9V212.5z"/>
		<path id="XMLID_23_" class="st1" d="M411.7,222.2c0-3.3-2.7-2.1-2.7-2.1s-2.2-2.8-2.9-6.1c2.4-1.5,5.7-2.5,7.8-2.5
			c4.4,0,8.3,2.7,8.3,8.5v19.9c0,4.1,2.7,2.1,2.7,2.1c2.6,2.1,3.3,5.1,3.3,5.1s-2.6,4.2-8.4,4.2c-5.1,0-8.2-4.4-8.2-8.8V222.2z"/>
		<path id="XMLID_43_" class="st1" d="M462.2,239.8c0,3.9,2.7,2.1,2.7,2.1c2.5,2.1,3.3,5.1,3.3,5.1s-2.6,4.2-7.8,4.2
			c-2.3,0-5.1-0.7-7.4-3.7c-1.6,2-4.8,3.7-8.1,3.7c-6,0-12.9-3.2-12.9-12.8c0-9.3,8.3-13.1,15.3-13.1c1.4,0,3,0.3,4.3,0.7
			c-0.3-4.1-2-6.2-5.1-6.2c-2.5,0-5.4,0.9-8.4,3.3c-3.6-2.8-4.4-6.7-4.4-6.7c3.4-2.8,8.2-5,13.5-5c8.7,0,15,4.3,15,16.1V239.8z
			 M451.5,232.6c-1.5-0.6-2.8-0.7-3.9-0.7c-3.1,0-5.4,2.1-5.4,6.2c0,3.5,2.6,5.3,4.9,5.3c2.1,0,3.5-0.6,4.4-1.4V232.6z"/>
		<path id="XMLID_20_" class="st1" d="M129.9,200.4c0-3.3,2.5-6,5.9-6c3.3,0,6,2.6,6,6c0,3.3-2.6,5.9-6,5.9
			C132.5,206.3,129.9,203.8,129.9,200.4"/>
		<path id="XMLID_19_" class="st1" d="M409.9,198.8c0-3.3,2.5-6,5.9-6c3.3,0,6,2.6,6,6c0,3.3-2.6,5.9-6,5.9
			C412.4,204.7,409.9,202.1,409.9,198.8"/>
		<g id="XMLID_39_">
			<path id="XMLID_18_" class="st2" d="M415.7,191.8c0.3,0,0.7,0,1,0.1c-10.7-12.9-26.5-20.4-43.3-20.4c-16.3,0-31.9,7.2-42.5,19.4
				c-8.2-9.3-17.2-13.7-30.4-14.9c-5.1-26.5-28.1-45.6-55.3-45.6c-18.7,0-36.4,9.5-46.8,25c-3.9-0.8-7.8-1.2-11.8-1.2
				c-25.8,0-48.8,17.5-55.6,41.3c1.2-1.2,2.9-2,4.8-2c3.4,0,6.1,2.3,6.8,5.5c5.2-18.8,23.6-32.7,44-32.7c0,0,7.7,0.3,14.2,3.1
				l4.5-1.6c7.3-15.4,22.9-25.3,39.9-25.3c21.5,0,39.8,15.4,43.5,36.6c0.1,0.7,0.2,1.4,0.3,2.1c0.1,1.2,0.2,2.4,0.3,3.6l3.5,3.2
				l3.6-0.1c14.5,0.8,22,5.2,30.6,18c0,0,5.2,0.8,6.1,0.9c20.3-24.6,40.3-23.1,40.3-23.1c13.1,0,27,6.6,35.4,16.7l0.3,0.1
				c-0.1-0.5-0.2-1.1-0.2-1.7C408.9,194.9,411.9,191.8,415.7,191.8z"/>
		</g>
	</g>
</g>
</svg>
